<?xml version="1.0" standalone="no"?><!DOCTYPE svg PUBLIC "-//W3C//DTD SVG 1.1//EN" "http://www.w3.org/Graphics/SVG/1.1/DTD/svg11.dtd"><svg t="1615329731937" class="icon" viewBox="0 0 1024 1024" version="1.1" xmlns="http://www.w3.org/2000/svg" p-id="5836" xmlns:xlink="http://www.w3.org/1999/xlink" width="200" height="200"><defs><style type="text/css"></style></defs><path d="M512 6.144C233.984 6.144 6.144 233.984 6.144 512s227.84 505.856 505.856 505.856 505.856-227.84 505.856-505.856S790.528 6.144 512 6.144z m281.088 542.72h-244.224V793.6c0 20.48-16.384 36.864-36.864 36.864s-36.864-16.384-36.864-36.864v-244.736H230.912c-20.48 0-36.864-16.384-36.864-36.864s16.384-36.864 36.864-36.864h244.224V230.912c0-20.48 16.384-36.864 36.864-36.864 20.48-0.512 36.864 16.384 36.864 36.864v244.224H793.6c20.48 0 36.864 16.384 36.864 36.864s-16.896 36.864-37.376 36.864z" p-id="5837" fill="#FFC300"></path></svg>