<?xml version="1.0" standalone="no"?><!DOCTYPE svg PUBLIC "-//W3C//DTD SVG 1.1//EN" "http://www.w3.org/Graphics/SVG/1.1/DTD/svg11.dtd"><svg t="1608999124187" class="icon" viewBox="0 0 1024 1024" version="1.1" xmlns="http://www.w3.org/2000/svg" p-id="15427" xmlns:xlink="http://www.w3.org/1999/xlink" width="200" height="200"><defs><style type="text/css"></style></defs><path d="M512 1002.666667C241.024 1002.666667 21.333333 782.976 21.333333 512S241.024 21.333333 512 21.333333 1002.666667 241.024 1002.666667 512 782.976 1002.666667 512 1002.666667z m0-42.666667c247.424 0 448-200.576 448-448S759.424 64 512 64 64 264.576 64 512 264.576 960 512 960z m249.429333-256.128c-13.696 1.621333-53.333333-61.568-53.333333-61.568 0 36.565333-19.2 84.309333-60.714667 118.784 20.053333 6.058667 65.194667 22.357333 54.485334 40.106667-8.704 14.421333-149.290667 9.216-189.866667 4.736-40.533333 4.48-181.12 9.685333-189.824-4.693334-10.752-17.792 34.389333-34.090667 54.442667-40.149333-41.514667-34.474667-60.714667-82.176-60.714667-118.784 0 0-39.637333 63.146667-53.333333 61.568-6.4-0.768-14.762667-34.602667 11.093333-116.352 12.202667-38.528 26.154667-70.528 47.786667-123.392C317.738667 327.68 375.168 213.333333 512 213.333333c135.253333 0 194.005333 112.170667 190.592 250.794667 21.546667 52.736 35.541333 84.992 47.744 123.392 25.856 81.749333 17.493333 115.584 11.093333 116.352z" fill="#ffffff" p-id="15428"></path></svg>