<?xml version="1.0" standalone="no"?><!DOCTYPE svg PUBLIC "-//W3C//DTD SVG 1.1//EN" "http://www.w3.org/Graphics/SVG/1.1/DTD/svg11.dtd"><svg t="1608999352455" class="icon" viewBox="0 0 1024 1024" version="1.1" xmlns="http://www.w3.org/2000/svg" p-id="19919" xmlns:xlink="http://www.w3.org/1999/xlink" width="200" height="200"><defs><style type="text/css"></style></defs><path d="M965.8368 316.58496c-24.94976-58.96704-60.62592-111.91808-106.112-157.37344-45.45536-45.45536-98.4064-81.16224-157.37344-106.112-61.07136-25.84064-125.90592-38.90688-192.75264-38.90688-66.82112 0-131.68128 13.09696-192.75264 38.90688-58.96704 24.94976-111.91808 60.62592-157.37344 106.112-45.45536 45.45536-81.16224 98.4064-106.112 157.37344C27.52512 377.65632 14.42304 442.49088 14.42304 509.30688s13.09696 131.68128 38.9376 192.72192c24.94976 58.96704 60.62592 111.88736 106.112 157.37344 45.45536 45.45536 98.4064 81.16224 157.37344 106.112 61.07136 25.84064 125.90592 38.90688 192.75264 38.90688 66.82112 0 131.68128-13.09696 192.75264-38.90688 58.96704-24.94976 111.91808-60.62592 157.37344-106.112 45.45536-45.45536 81.16224-98.4064 106.112-157.37344 25.84064-61.07136 38.90688-125.90592 38.90688-192.72192S991.64672 377.65632 965.8368 316.58496zM509.62944 951.1168c-243.63008 0-441.83552-198.17472-441.83552-441.8048 0-243.63008 198.20544-441.8048 441.83552-441.8048 243.59936 0.03072 441.8048 198.20544 441.8048 441.8048S753.2288 951.1168 509.62944 951.1168z" p-id="19920" fill="#ffffff"></path><path d="M612.584448 415.704064c6.677504 0 13.284352 0.490496 19.838976 1.219584-17.824768-82.998272-106.564608-144.6656-207.854592-144.6656-113.242112 0-206.004224 77.185024-206.004224 175.197184 0 56.574976 30.861312 103.032832 82.433024 139.066368l-20.603904 61.969408 72.014848-36.112384c25.76896 5.100544 46.44352 10.344448 72.159232 10.344448 6.464512 0 12.874752-0.319488 19.23072-0.8192-4.02432-13.7728-6.356992-28.197888-6.356992-43.164672C437.44256 488.740864 514.729984 415.704064 612.584448 415.704064zM501.819392 359.851008c15.511552 0 25.786368 10.20416 25.786368 25.705472 0 15.439872-10.27584 25.785344-25.786368 25.785344-15.439872 0-30.932992-10.346496-30.932992-25.785344C470.8864 370.055168 486.37952 359.851008 501.819392 359.851008zM357.644288 411.341824c-15.437824 0-31.021056-10.346496-31.021056-25.785344 0-15.501312 15.582208-25.705472 31.021056-25.705472 15.439872 0 25.715712 10.20416 25.715712 25.705472C383.36 400.995328 373.08416 411.341824 357.644288 411.341824zM800.602112 576.264192c0-82.359296-82.41664-149.491712-174.98112-149.491712-98.015232 0-175.212544 67.132416-175.212544 149.491712 0 82.500608 77.197312 149.491712 175.212544 149.491712 20.514816 0 41.206784-5.173248 61.810688-10.33728l56.50432 30.941184-15.49312-51.479552C769.794048 663.858176 800.602112 622.722048 800.602112 576.264192zM568.812544 550.48704c-10.257408 0-20.603904-10.20416-20.603904-20.612096 0-10.264576 10.346496-20.600832 20.603904-20.600832 15.582208 0 25.786368 10.33728 25.786368 20.600832C594.598912 540.28288 584.393728 550.48704 568.812544 550.48704zM682.125312 550.48704c-10.186752 0-20.462592-10.20416-20.462592-20.612096 0-10.264576 10.27584-20.600832 20.462592-20.600832 15.439872 0 25.78432 10.33728 25.78432 20.600832C707.910656 540.28288 697.565184 550.48704 682.125312 550.48704z" p-id="19921" fill="#ffffff"></path></svg>