<?xml version="1.0" standalone="no"?><!DOCTYPE svg PUBLIC "-//W3C//DTD SVG 1.1//EN" "http://www.w3.org/Graphics/SVG/1.1/DTD/svg11.dtd"><svg t="1608999853444" class="icon" viewBox="0 0 1024 1024" version="1.1" xmlns="http://www.w3.org/2000/svg" p-id="24393" xmlns:xlink="http://www.w3.org/1999/xlink" width="200" height="200"><defs><style type="text/css"></style></defs><path d="M512 1024A512 512 0 1 1 1024 512 512.353103 512.353103 0 0 1 512 1024z m0-988.689655A476.689655 476.689655 0 1 0 988.689655 512 477.395862 477.395862 0 0 0 512 35.310345z" p-id="24394" fill="#ffffff"></path><path d="M653.594483 795.188966h-282.482759a35.310345 35.310345 0 0 1-35.310345-35.310345v-494.344828a35.310345 35.310345 0 0 1 35.310345-35.310345h282.482759a35.310345 35.310345 0 0 1 35.310345 35.310345v494.344828a35.310345 35.310345 0 0 1-35.310345 35.310345z m-141.24138-17.655173a17.655172 17.655172 0 1 0-17.655172-17.655172 17.655172 17.655172 0 0 0 17.655172 17.655172z m79.448276-513.412414h-159.602758a8.827586 8.827586 0 1 0 0 17.655173h159.602758a8.827586 8.827586 0 0 0 0-17.655173zM653.594483 317.793103h-282.482759v406.775173h282.482759z" p-id="24395" fill="#ffffff"></path></svg>