<?xml version="1.0" standalone="no"?><!DOCTYPE svg PUBLIC "-//W3C//DTD SVG 1.1//EN" "http://www.w3.org/Graphics/SVG/1.1/DTD/svg11.dtd"><svg t="1609001344755" class="icon" viewBox="0 0 1024 1024" version="1.1" xmlns="http://www.w3.org/2000/svg" p-id="28321" xmlns:xlink="http://www.w3.org/1999/xlink" width="200" height="200"><defs><style type="text/css"></style></defs><path d="M667.8784 642.6624c-51.6608-40.2432-109.9776-63.36-160-63.36-25.344 0-52.48 12.9024-77.3376 27.1616-15.872-20.992-39.0912-53.76-50.688-74.0352-10.752-18.8672-23.4752-47.6928-32.768-73.344 18.1248-7.4752 34.6624-16.7168 45.9264-29.696 37.9392-43.7248 53.76-114.7392 43.4688-194.9184-14.8224-115.2-89.0112-210.3552-168.9088-216.6272-45.7984-3.5328-100.0448 7.9616-138.1376 29.5168C73.6256 78.9248 33.7408 133.4272 14.1056 204.9536-22.4512 337.9456 13.056 517.6832 109.0304 685.7728 224.5632 888.0896 404.3264 1024 556.3392 1024c41.6256 0 80-9.7792 114.048-29.0304 18.688-10.5728 80.9472-49.4592 97.1776-106.2656 18.9696-66.56 2.7904-166.144-99.6864-246.016z m31.104 226.4064c-6.5024 22.8352-36.6592 48.4352-63.6672 63.7184-23.2192 13.1328-49.792 19.7888-78.976 19.7888-125.2864 0-283.776-124.288-385.408-302.2336-85.4784-149.7088-119.2448-313.088-88.064-426.4192 14.6944-53.5552 42.1888-92.0576 81.6384-114.3808 22.7328-12.8512 56.6528-20.9408 86.0416-20.9408 3.9168 0 7.7312 0.1536 11.4432 0.4608 34.6368 2.7136 91.52 59.3152 103.7568 154.5472 7.5008 58.1888-2.688 111.4112-26.496 138.88-2.4576 2.6112-10.9568 8.4736-40.448 18.176-35.2256 11.5712-33.1008 35.7376-30.5664 45.6192 9.216 35.5072 31.0784 88.9088 49.7408 121.6 13.568 23.808 37.7856 57.344 44.8768 67.072 30.592 41.984 39.424 52.9408 59.52 52.9408 11.1616 0 18.2272-4.2752 31.0272-12.032 10.2912-6.1952 41.6-25.1392 54.4768-25.1392 33.9712 0 77.3888 18.048 116.1984 48.3072 74.4448 58.0352 87.5264 125.9008 74.9056 170.0352z" p-id="28322" fill="#ffffff"></path><path d="M542.1056 249.5488a34.56 34.56 0 0 0-34.4064 34.688v33.8688a34.56 34.56 0 0 0 34.4064 34.7136 34.56 34.56 0 0 0 34.432-34.7136v-33.8688a34.56 34.56 0 0 0-34.432-34.688zM817.4848 249.5488a34.56 34.56 0 0 0-34.432 34.688v33.8688a34.56 34.56 0 0 0 34.432 34.7136 34.56 34.56 0 0 0 34.4064-34.7136v-33.8688a34.56 34.56 0 0 0-34.4064-34.688zM767.0528 410.624a35.0464 35.0464 0 0 0-48.896 10.1888c-0.1536 0.2048-15.4112 22.9376-38.7072 22.9376-22.6304 0-36.736-21.0432-37.6832-22.528a34.8672 34.8672 0 0 0-48.512-11.3152 36.8128 36.8128 0 0 0-11.392 49.9712c12.7232 20.9408 47.5392 56.4224 97.5872 56.4224 49.792 0 85.0688-35.2 98.048-56.0128a36.6336 36.6336 0 0 0-10.4448-49.664z" p-id="28323" fill="#ffffff"></path><path d="M598.6816 0c-43.008 0-85.4272 6.4-126.1312 19.0208a35.9424 35.9424 0 0 0-23.5264 44.8 35.4304 35.4304 0 0 0 44.3904 23.7568c33.92-10.496 69.376-15.872 105.2672-15.872 195.3792 0 354.304 158.5408 354.304 353.3824 0 103.552-45.312 201.5488-124.3904 268.8768a36.1216 36.1216 0 0 0-4.2496 50.5344 35.2768 35.2768 0 0 0 50.0224 4.3008A424.6272 424.6272 0 0 0 1024 425.088C1024 190.6944 833.2032 0 598.6816 0z" p-id="28324" fill="#ffffff"></path></svg>