<?xml version="1.0" standalone="no"?><!DOCTYPE svg PUBLIC "-//W3C//DTD SVG 1.1//EN" "http://www.w3.org/Graphics/SVG/1.1/DTD/svg11.dtd"><svg t="1609664044204" class="icon" viewBox="0 0 1024 1024" version="1.1" xmlns="http://www.w3.org/2000/svg" p-id="22053" xmlns:xlink="http://www.w3.org/1999/xlink" width="200" height="200"><defs><style type="text/css"></style></defs><path d="M316.631579 896a77.608421 77.608421 0 0 1-77.338947-77.338947V399.898947a21.557895 21.557895 0 1 1 43.115789 0v418.762106a34.223158 34.223158 0 0 0 34.223158 34.223158h389.928421a34.223158 34.223158 0 0 0 34.223158-34.223158V401.246316a21.557895 21.557895 0 1 1 43.115789 0v417.414737a77.608421 77.608421 0 0 1-77.338947 77.338947zM595.267368 727.578947a21.827368 21.827368 0 0 1-21.557894-21.557894V400.437895a21.557895 21.557895 0 1 1 43.115789 0v306.661052a21.827368 21.827368 0 0 1-21.557895 20.48z m-167.073684 0a21.827368 21.827368 0 0 1-21.557895-21.557894V400.437895a21.557895 21.557895 0 1 1 43.11579 0v306.661052a21.827368 21.827368 0 0 1-21.557895 20.48zM149.557895 310.703158a21.557895 21.557895 0 0 1 0-43.11579H296.421053V205.338947a77.608421 77.608421 0 0 1 77.338947-77.338947h277.827368A77.608421 77.608421 0 0 1 727.578947 205.338947v61.978948h145.51579a21.557895 21.557895 0 0 1 0 43.115789z m222.854737-139.317895a34.223158 34.223158 0 0 0-34.223158 34.223158v61.978947h346.00421V205.338947a33.684211 33.684211 0 0 0-33.414737-34.223158z" p-id="22054" fill="#8a8a8a"></path></svg>