<?xml version="1.0" standalone="no"?><!DOCTYPE svg PUBLIC "-//W3C//DTD SVG 1.1//EN" "http://www.w3.org/Graphics/SVG/1.1/DTD/svg11.dtd"><svg t="1609659228255" class="icon" viewBox="0 0 1024 1024" version="1.1" xmlns="http://www.w3.org/2000/svg" p-id="17981" xmlns:xlink="http://www.w3.org/1999/xlink" width="200" height="200"><defs><style type="text/css"></style></defs><path d="M66.96 735.435h890.118c17.308 0 32.186-6.233 44.588-18.74 12.414-12.508 18.653-27.694 18.653-45.485s-6.24-33.012-18.653-45.485c-12.431-12.502-27.35-18.787-44.588-18.787h-5.645c-12.047-86.438-46.65-162.832-103.937-229.132-57.212-66.352-127.228-111.638-210.117-135.907v-1.171c1.525-7.532 2.319-13.242 2.319-17.069 0-35.599-12.431-65.728-37.277-90.357-24.839-24.647-54.992-36.945-90.382-36.945-35.383-0.047-65.327 12.291-89.781 36.945-24.455 24.671-36.7 54.8-36.723 90.357 0 3.844 0.379 9.898 1.119 18.24-82.849 24.269-152.9 69.537-210.141 135.907-57.218 66.3-91.867 142.693-103.915 229.132h-5.645c-8.295 0-16.404 1.695-24.269 5.138-7.917 3.443-14.704 7.964-20.395 13.649-5.645 5.674-10.165 12.473-13.509 20.499-3.391 7.957-5.091 16.468-5.115 25.563 0 17.429 6.215 32.372 18.624 44.908 12.455 12.448 27.327 18.74 44.617 18.74h0.052zM511.995 160.046c17.319 0 32.208 6.24 44.617 18.746 12.437 12.502 18.624 27.495 18.653 44.902v3.489l-1.148 1.083c-19.090-2.884-41.235-4.613-63.755-4.772 22.663 0.611 11.604 0.205 0.449 0.204-8.617 0.001-18.775 0.404-29.297 1.121-23.289 1.761-44.585 4.927-65.36 9.49l32.603-7.124v-3.489c0-17.407 6.21-32.378 18.647-44.902 12.414-12.508 27.28-18.746 44.588-18.746zM244.305 502.336c20.325-33.35 46.119-62.163 77.374-86.409 41.421-32.497 92.57-54.435 148.428-60.949-42.405 7.828-40.908 7.466-39.423 7.466 2.294-0.717 4.16-1.119 5.638-1.119 9.041 0 16.765 3.25 23.173 9.706 6.414 6.478 9.606 14.185 9.606 23.313 0 5.33-1.148 10.258-3.413 14.779-3.162 6.283-8.19 11.235-14.35 14.221 0.602 0.238-3.726 2.131-8.224 2.801-38.199 11.559-71.221 30.172-99.127 54.503 4.102-7.766-26.827 22.747-48.925 59.207 12.693-24.543-9.796 11.090-22.122 51.173 24.352-52.149 20.47-47.418 15.566-44.081 0.135 0.673-5.339 3.743-11.47 5.022 1.917-0.253-2.219 0.493-6.769 0.493-9.041 0-16.544-3.036-22.567-9.087-6.053-6.094-9.065-13.678-9.065-22.761 0-6.815 1.91-12.838 5.638-18.198v-0.076h0.030zM957.057 799.13h-890.095c-17.313 0-32.186 6.292-44.588 18.798-12.437 12.502-18.624 27.694-18.647 45.479-0.030 17.814 6.193 32.995 18.647 45.502 12.455 12.483 27.303 18.729 44.588 18.729h890.118c17.308 0 32.186-6.245 44.588-18.729 12.437-12.502 18.653-27.687 18.653-45.502 0-17.785-6.193-32.972-18.653-45.479-12.426-12.508-27.35-18.798-44.611-18.798z" fill="#FFC300" p-id="17982"></path></svg>