<?xml version="1.0" standalone="no"?><!DOCTYPE svg PUBLIC "-//W3C//DTD SVG 1.1//EN" "http://www.w3.org/Graphics/SVG/1.1/DTD/svg11.dtd"><svg t="1609658867559" class="icon" viewBox="0 0 1024 1024" version="1.1" xmlns="http://www.w3.org/2000/svg" p-id="7535" xmlns:xlink="http://www.w3.org/1999/xlink" width="200" height="200"><defs><style type="text/css"></style></defs><path d="M210.300343 46.811429A500.390766 500.390766 0 0 0 14.628571 421.302857c8.390949 23.341349 24.880274 35.009097 49.473829 35.009097S103.886263 444.650057 109.667474 421.302857c7.121189-126.396709 71.68-237.07648 168.59136-306.25792 19.754423-22.024777 19.754423-43.634103 0-64.833828-15.202011-15.23712-37.858743-16.372297-67.95264-3.39968z m600.976823 0a500.390766 500.390766 0 0 1 195.671771 374.491428c-8.390949 23.341349-24.880274 35.009097-49.473828 35.009097s-39.783863-11.667749-45.559223-35.009097c-7.12704-126.396709-71.685851-237.07648-168.597212-306.25792-19.754423-22.024777-19.754423-43.634103 0-64.833828 15.207863-15.23712 37.858743-16.372297 67.958492-3.39968z" fill="#FFC300" p-id="7536"></path><path d="M820.604343 443.807451c0-145.507474-101.218011-267.363474-237.450972-299.511222v-32.270629C583.153371 72.645486 551.28064 40.96 511.941486 40.96c-39.456183 0-71.211886 31.802514-71.211886 71.0656v32.270629c-136.349989 32.264777-237.450971 154.003749-237.450971 299.511222v260.716252L108.251429 799.351954v47.408275h807.497142v-47.408275l-95.0272-94.828251V443.807451h-0.117028zM511.824457 988.891429c6.653074 0 12.843886-0.468114 19.028846-1.866606 30.819474-6.173257 56.501394-27.490011 68.4032-55.916252 4.798171-11.416137 7.595154-23.651474 7.595154-36.922514H416.797257c0 52.066011 42.727131 94.705371 95.0272 94.705372" fill="#FFC300" p-id="7537"></path><path d="M387.967269 245.613714C324.754286 272.518583 279.300389 355.766857 289.645714 415.58016c1.620846 9.385691 7.858469 17.554286 17.554286 17.554286a17.554286 17.554286 0 0 0 17.554286-17.554286c0-46.986971 28.034194-94.652709 85.77024-143.067429a17.554286 17.554286 0 0 0 2.17088-24.728137c-6.231771-7.431314-16.54784-5.65248-24.728137-2.165028z" fill="#FFC300" p-id="7538"></path></svg>