<?xml version="1.0" standalone="no"?><!DOCTYPE svg PUBLIC "-//W3C//DTD SVG 1.1//EN" "http://www.w3.org/Graphics/SVG/1.1/DTD/svg11.dtd"><svg t="1608650893335" class="icon" viewBox="0 0 1024 1024" version="1.1" xmlns="http://www.w3.org/2000/svg" p-id="887" xmlns:xlink="http://www.w3.org/1999/xlink" width="200" height="200"><defs><style type="text/css"></style></defs><path d="M512 109.973333l348.16 201.002667v402.048L512 914.026667 163.84 713.024V310.976z" fill="#00B3FF" p-id="888"></path><path d="M860.16 329.024v109.952L512 640 163.84 438.976v-109.952L512 128l348.16 201.024z" fill="#F97F26" p-id="889"></path><path d="M163.84 438.976v-109.952L512 128v512z" fill="#FF962A" p-id="890"></path><path d="M860.16 396.309333L512 597.333333 163.84 396.309333v-85.333333L512 109.973333l348.16 201.002667v85.333333z" fill="#009CE5" p-id="891"></path><path d="M860.16 396.309333L512 597.333333V109.973333l348.16 201.002667v85.333333z" fill="#00CAFF" p-id="892"></path><path d="M860.16 310.976L512 512 163.84 310.976 512 109.973333l348.16 201.002667z" fill="#00BDFF" p-id="893"></path><path d="M859.989333 310.890667L618.666667 448l-346.069334-199.808L512 109.952z" fill="#20C5FF" p-id="894"></path><path d="M859.925333 310.826667L768 362.666667 421.162667 162.410667 512 109.973333z" fill="#3FD0FF" p-id="895"></path><path d="M163.84 438.976L512 640v274.026667L163.84 713.024z" fill="#009CE5" p-id="896"></path><path d="M362.666667 827.818667l-106.666667-61.589334v-146.026666l106.666667 61.568z" fill="#0773CA" p-id="897"></path><path d="M277.418667 778.602667L256 766.229333v-146.026666l21.418667 12.416v145.984z" fill="#035DA5" p-id="898"></path><path d="M256 598.869333l106.666667 61.568v21.333334l-106.666667-61.568z" fill="#00CBFF" p-id="899"></path><path d="M860.16 438.976v274.048L512 914.026667V640l348.16-201.024z" fill="#00CAFF" p-id="900"></path><path d="M768 598.954667l-106.666667 61.504v167.466666l106.666667-61.504z" fill="#FF962A" p-id="901"></path><path d="M768 598.954667l-21.333333 12.288v167.466666l21.333333-12.288z" fill="#0069B0" p-id="902"></path><path d="M768 598.954667l-106.666667 61.504v23.509333l106.666667-61.504z" fill="#0096FC" p-id="903"></path><path d="M811.818667 601.834667c-12.096 0.810667-22.72-8.149333-27.370667-20.352-5.098667-13.418667-4.138667-26.666667 3.136-38.464 6.954667-11.264 16.576-15.744 28.010667-14.08 5.653333 0.853333 10.666667 3.712 15.018666 8.256 2.346667 2.474667 2.304 3.562667-0.32 5.418666l-6.826666 4.821334c-6.272 4.522667-12.565333 8.96-18.752 13.610666-3.306667 2.496-3.968 6.485333-2.133334 10.602667 2.005333 4.48 5.909333 5.504 10.026667 2.56 12.224-8.682667 24.405333-17.472 36.693333-26.090667 2.005333-1.429333 2.24-2.88 1.344-5.290666a48.362667 48.362667 0 0 0-14.122666-20.693334c-13.845333-11.562667-28.586667-13.397333-43.733334-4.629333-15.082667 8.746667-23.274667 24.106667-24.64 44.352-1.130667 16.768 4.053333 30.976 13.909334 42.666667 13.738667 16.32 36.693333 18.88 52.458666 5.76 4.096-3.413333 4.096-3.413333 1.557334-8.597334-2.752-5.632-5.482667-6.698667-10.261334-3.861333-4.522667 2.645333-9.216 4.394667-13.994666 4.010667zM853.333333 577.984c-0.213333-4.032-2.005333-7.296-3.541333-10.666667-0.490667-1.109333-1.301333-0.682667-2.026667-0.192-2.816 1.984-5.610667 3.968-8.448 5.909334-1.194667 0.832-1.408 1.813333-0.704 3.264 1.6 3.349333 3.2 6.698667 4.757334 10.090666 0.661333 1.472 1.472 1.813333 2.624 0.896 1.706667-1.301333 3.456-2.538667 5.077333-3.946666a6.549333 6.549333 0 0 0 2.261333-5.333334z" fill="#FFFFFF" p-id="904"></path></svg>