<?xml version="1.0" standalone="no"?><!DOCTYPE svg PUBLIC "-//W3C//DTD SVG 1.1//EN" "http://www.w3.org/Graphics/SVG/1.1/DTD/svg11.dtd"><svg t="1660987066725" class="icon" viewBox="0 0 1024 1024" version="1.1" xmlns="http://www.w3.org/2000/svg" p-id="3382" width="200" height="200" xmlns:xlink="http://www.w3.org/1999/xlink"><defs><style type="text/css">@font-face { font-family: feedback-iconfont; src: url("//at.alicdn.com/t/font_1031158_u69w8yhxdu.woff2?t=1630033759944") format("woff2"), url("//at.alicdn.com/t/font_1031158_u69w8yhxdu.woff?t=1630033759944") format("woff"), url("//at.alicdn.com/t/font_1031158_u69w8yhxdu.ttf?t=1630033759944") format("truetype"); }
</style></defs><path d="M541.682 600.92l17.737-37.927c81.204-22.923 140.717-97.561 140.717-186.102 0-106.789-86.571-193.358-193.358-193.358-106.791 0-193.359 86.569-193.359 193.358 0 88.539 59.511 163.176 140.716 186.102l17.81 38.083C223.488 605.426 28.19 649.871 28.19 704.058c0 57.071 216.609 136.407 483.808 136.407 267.2 0 483.807-79.336 483.807-136.407C995.808 649.12 795.057 604.197 541.682 600.92zM358.578 376.894c0-81.849 66.352-148.2 148.201-148.2 81.847 0 148.2 66.351 148.2 148.2s-66.352 148.199-148.2 148.199C424.93 525.093 358.578 458.742 358.578 376.894zM300.581 655.026c0 24.938 94.656 59.604 211.421 59.604s211.421-34.668 211.421-59.604c0-23.107-81.262-42.16-186.075-44.837l2.458-5.258c130.386 3.171 231.954 28.371 231.954 58.993 0 32.768-116.295 66.82-259.756 66.82-143.458 0-259.756-34.053-259.756-66.82 0-29.811 96.256-54.483 221.646-58.691l2.464 5.275C376.567 614.13 300.581 632.681 300.581 655.026zM476.474 610.75l30.304 64.799 30.516-65.243c79.318 2.779 140.066 18.435 140.066 37.329 0 20.863-74.031 37.77-165.357 37.77-91.324 0-165.357-16.908-165.357-37.77C346.645 629.563 402.231 614.466 476.474 610.75zM512 786.686c-208.982 0-378.399-51.802-378.399-99.536 0-44.648 148.224-81.386 338.404-85.951l1.806 3.865c-165.431 4.047-293.927 34.052-293.927 70.468 0 39.178 148.693 93.638 332.118 93.638s332.118-54.46 332.118-93.638c0-37.172-133.882-67.666-304.271-70.689l1.807-3.862c195.125 3.457 348.747 40.714 348.747 86.168C890.4 734.884 720.986 786.686 512 786.686z" p-id="3383" fill="#000000"></path><path d="M609.522 363.265l-54.981-42.397c0.161-0.672 0.254-1.371 0.254-2.093l0-33.734c0-4.983-4.036-9.024-9.015-9.024-4.982 0-9.021 4.043-9.021 9.024l0 22.113-26.231-20.227c-1.895-1.457-4.17-2.061-6.38-1.891-2.211-0.17-4.488 0.435-6.381 1.891l-99.006 76.338c-4.063 3.13-4.82 8.966-1.685 13.027 3.136 4.065 8.969 4.819 13.03 1.685l94.041-72.5 94.031 72.5c4.07 3.135 9.899 2.381 13.035-1.685C614.349 372.231 613.594 366.395 609.522 363.265z" p-id="3384" fill="#000000"></path><path d="M594.344 388.636 506.2 320.971c-1.131-0.87-2.984-0.87-4.117 0l-88.134 67.665c-1.132 0.87-0.891 1.581 0.537 1.581l2.682 0 0 60.166c0 2.401 3.893 4.339 8.706 4.339l56.6 0c4.81 0 8.706-1.938 8.706-4.339l0-60.166 25.811 0 0 59.827c0 2.396 3.895 4.343 8.708 4.343l56.601 0c4.81 0 8.703-1.947 8.703-4.343l0-59.827 2.807 0C595.236 390.217 595.477 389.506 594.344 388.636z" p-id="3385" fill="#000000"></path></svg>