<?xml version="1.0" standalone="no"?><!DOCTYPE svg PUBLIC "-//W3C//DTD SVG 1.1//EN" "http://www.w3.org/Graphics/SVG/1.1/DTD/svg11.dtd"><svg t="1608651498810" class="icon" viewBox="0 0 1024 1024" version="1.1" xmlns="http://www.w3.org/2000/svg" p-id="2191" xmlns:xlink="http://www.w3.org/1999/xlink" width="200" height="200"><defs><style type="text/css"></style></defs><path d="M428.972973 830.27027C202.032432 830.27027 13.837838 642.075676 13.837838 415.135135S202.032432 0 428.972973 0 844.108108 188.194595 844.108108 415.135135 655.913514 830.27027 428.972973 830.27027z m0-774.918919C229.708108 55.351351 69.189189 215.87027 69.189189 415.135135S229.708108 774.918919 428.972973 774.918919 788.756757 614.4 788.756757 415.135135 628.237838 55.351351 428.972973 55.351351z" fill="#535353" p-id="2192"></path><path d="M927.135135 1001.859459c-11.07027 0-27.675676-5.535135-38.745946-16.605405l-221.405405-210.335135c-22.140541-22.140541-22.140541-55.351351 0-77.491892 22.140541-22.140541 55.351351-22.140541 77.491892 0l221.405405 210.335135c22.140541 22.140541 22.140541 55.351351 0 77.491892-5.535135 11.07027-22.140541 16.605405-38.745946 16.605405z" fill="#535353" p-id="2193"></path></svg>