<?xml version="1.0" standalone="no"?><!DOCTYPE svg PUBLIC "-//W3C//DTD SVG 1.1//EN" "http://www.w3.org/Graphics/SVG/1.1/DTD/svg11.dtd"><svg t="1608651417308" class="icon" viewBox="0 0 1024 1024" version="1.1" xmlns="http://www.w3.org/2000/svg" p-id="1986" xmlns:xlink="http://www.w3.org/1999/xlink" width="200" height="200"><defs><style type="text/css"></style></defs><path d="M980.982374 960.225617l-280.366627-279.764982c69.189189-72.197415 111.304348-169.663925 111.304348-277.358402 0-222.608696-181.095182-403.102233-404.305523-403.102233C183.20094 0 2.105758 180.493537 2.105758 403.102233c0 223.210341 181.095182 403.703878 404.907168 403.703878 18.049354 0 35.497062-1.20329 52.343126-3.609871l0 0 0 0c68.587544-9.024677 131.760282-34.895417 184.705053-73.400705l283.976498 283.374853c14.439483 14.439483 37.903643 14.439483 52.343126 0C995.421857 998.12926 995.421857 975.266745 980.982374 960.225617z" p-id="1987" fill="#FFC300"></path><path d="M95.962397 363.393655c-3.008226 16.846063 10.227967 33.090482 27.675676 33.090482l1.804935 0c13.837838 0 25.87074-10.829612 27.675676-24.66745 1.804935-12.634548 4.813161-29.480611 11.431257-48.13161 4.211516-12.032902-0.601645-26.472385-11.431257-33.090482 0 0-0.601645 0-0.601645 0-15.041128-9.024677-34.895417-2.40658-40.911868 14.439483C104.987074 323.083431 99.572268 342.336075 95.962397 363.393655z" p-id="1988" fill="#FFC300"></path><path d="M351.661575 107.694477c-46.326675 7.821387-133.565217 32.488837-194.93302 112.507638-10.227967 13.236193-6.618096 32.488837 7.219741 41.513514 0 0 0.601645 0 0.601645 0 12.032902 7.219741 27.675676 4.813161 36.700353-6.618096C231.934195 215.990599 280.66745 180.493537 361.287897 167.257344c13.236193-2.40658 22.26087-13.837838 22.26087-27.074031l0-4.813161C383.548766 117.922444 368.507638 104.686251 351.661575 107.694477z" p-id="1989" fill="#FFC300"></path></svg>